name C:\Users\Nicos\Documents\OpenSimProjects\SprintingProject\Study1\PredictiveResults\IC_pred_Sprinting_optimum_28-October-2023__01-01-41___HTD_Minus_2_p02_maxVel_01.mot
datacolumns 38
datarows 12
range 0.10736096 0.11755643
endheader
                time	/jointset/ground_pelvis/pelvis_tilt/value	/jointset/ground_pelvis/pelvis_list/value	/jointset/ground_pelvis/pelvis_rotation/value	/jointset/ground_pelvis/pelvis_tx/value	/jointset/ground_pelvis/pelvis_ty/value	/jointset/ground_pelvis/pelvis_tz/value	/jointset/hip_r/hip_flexion_r/value	/jointset/hip_r/hip_adduction_r/value	/jointset/hip_r/hip_rotation_r/value	/jointset/knee_r/knee_angle_r/value	/jointset/ankle_r/ankle_angle_r/value	/jointset/subtalar_r/subtalar_angle_r/value	/jointset/mtp_r/mtp_angle_r/value	/jointset/hip_l/hip_flexion_l/value	/jointset/hip_l/hip_adduction_l/value	/jointset/hip_l/hip_rotation_l/value	/jointset/knee_l/knee_angle_l/value	/jointset/ankle_l/ankle_angle_l/value	/jointset/subtalar_l/subtalar_angle_l/value	/jointset/mtp_l/mtp_angle_l/value	/jointset/back/lumbar_extension/value	/jointset/back/lumbar_bending/value	/jointset/back/lumbar_rotation/value	/jointset/acromial_r/arm_flex_r/value	/jointset/acromial_r/arm_add_r/value	/jointset/acromial_r/arm_rot_r/value	/jointset/elbow_r/elbow_flex_r/value	/jointset/radioulnar_r/pro_sup_r/value	/jointset/radius_hand_r/wrist_flex_r/value	/jointset/radius_hand_r/wrist_dev_r/value	/jointset/acromial_l/arm_flex_l/value	/jointset/acromial_l/arm_add_l/value	/jointset/acromial_l/arm_rot_l/value	/jointset/elbow_l/elbow_flex_l/value	/jointset/radioulnar_l/pro_sup_l/value	/jointset/radius_hand_l/wrist_flex_l/value	/jointset/radius_hand_l/wrist_dev_l/value	
          0.10736096	         -8.50041953	          3.92606979	        -15.99965517	          0.61283080	          0.96057155	          0.30619926	          7.43969847	         -6.42160341	          9.36012443	        -28.27397234	         11.69844064	        -12.46050222	         13.65226459	         64.96282007	        -11.23498350	          3.44364105	       -129.38518446	          8.27820551	        -19.57090700	          0.33008307	        -13.15112152	         -0.80050021	          7.42764262	         64.74213806	         -7.92541134	         -8.94237217	        139.76134949	         76.78795662	        -15.44461276	          7.22884942	        -47.96503997	         -0.90625085	         -0.74425700	         93.97512359	         62.88538205	         -5.05145448	          7.82453040	
          0.10880310	         -8.50185757	          4.21242070	        -15.82220100	          0.63014269	          0.96024090	          0.30578442	          7.01991819	         -7.01999285	          9.02851016	        -29.11461469	         10.96822986	        -12.38900501	         12.81811712	         65.92747747	        -10.81605654	          3.51242564	       -129.03829800	          8.44319945	        -19.44817660	          0.23042930	        -12.98313786	         -1.08995792	          7.36941728	         66.24655764	         -7.39005712	         -8.20939675	        139.97782978	         76.60850855	        -15.21975030	          7.33531001	        -49.48714135	         -0.58198321	         -0.84494571	         94.97872877	         62.40928377	         -5.22393985	          7.79563470	
          0.10880310	         -8.50185757	          4.21242070	        -15.82220100	          0.63014269	          0.96024090	          0.30578442	          7.01991819	         -7.01999285	          9.02851016	        -29.11461469	         10.96822986	        -12.38900501	         12.81811712	         65.92747747	        -10.81605654	          3.51242564	       -129.03829800	          8.44319945	        -19.44817660	          0.23042930	        -12.98313786	         -1.08995792	          7.36941728	         66.24655764	         -7.39005712	         -8.20939675	        139.97782978	         76.60850855	        -15.21975030	          7.33531001	        -49.48714135	         -0.58198321	         -0.84494571	         94.97872877	         62.40928377	         -5.22393985	          7.79563470	
          0.10943288	         -8.50660386	          4.33703075	        -15.74523870	          0.63769734	          0.96010014	          0.30561103	          6.84925112	         -7.27827452	          8.88355299	        -29.49176117	         10.61632342	        -12.36306029	         12.43443896	         66.34708641	        -10.63926652	          3.53750653	       -128.87390979	          8.51182940	        -19.38713395	          0.19091803	        -12.90624274	         -1.21693571	          7.34670327	         66.88593880	         -7.15645541	         -7.89725553	        140.04674422	         76.53172914	        -15.12154358	          7.38059883	        -50.14728120	         -0.45013237	         -0.89089678	         95.41004066	         62.20770442	         -5.30218125	          7.78439390	
          0.11142273	         -8.53249998	          4.71950077	        -15.51699250	          0.66153548	          0.95967883	          0.30511330	          6.35587751	         -8.06931347	          8.44945054	        -30.72302219	          9.36515237	        -12.31791111	         11.10132573	         67.65701089	        -10.12447115	          3.60014298	       -128.30406810	          8.70997234	        -19.17380966	          0.07957664	        -12.65870734	         -1.61483519	          7.30121906	         68.83702677	         -6.42352989	         -6.95750019	        140.16042198	         76.29712076	        -14.81124339	          7.51822824	        -52.20747315	         -0.07477918	         -1.03302611	         96.73530611	         61.60487085	         -5.56104879	          7.75739125	
          0.11286487	         -8.55698166	          4.97982936	        -15.37232173	          0.67877697	          0.95940251	          0.30480898	          6.03642658	         -8.61171304	          8.16923708	        -31.64827580	          8.33126604	        -12.32788476	          9.99044167	         68.58440563	         -9.80253695	          3.63324550	       -127.84394831	          8.83248644	        -19.00918650	          0.00916054	        -12.48208382	         -1.89584092	          7.30076207	         70.18636881	         -5.90005782	         -6.33274855	        140.14274443	         76.13551502	        -14.58636260	          7.61159653	        -53.67064392	          0.15847596	         -1.12578507	         97.65098274	         61.19999542	         -5.75972664	          7.74419623	
          0.11286487	         -8.55698166	          4.97982936	        -15.37232173	          0.67877697	          0.95940251	          0.30480898	          6.03642658	         -8.61171304	          8.16923708	        -31.64827580	          8.33126604	        -12.32788476	          9.99044167	         68.58440563	         -9.80253695	          3.63324550	       -127.84394831	          8.83248644	        -19.00918650	          0.00916054	        -12.48208382	         -1.89584092	          7.30076207	         70.18636881	         -5.90005782	         -6.33274855	        140.14274443	         76.13551502	        -14.58636260	          7.61159653	        -53.67064392	          0.15847596	         -1.12578507	         97.65098274	         61.19999542	         -5.75972664	          7.74419623	
          0.11349465	         -8.56816544	          5.08780783	        -15.31629076	          0.68629576	          0.95929093	          0.30469309	          5.90590218	         -8.83897350	          8.05877272	        -32.05984629	          7.84693299	        -12.34504290	          9.47411403	         68.98202226	         -9.67770394	          3.64510456	       -127.63073807	          8.87970365	        -18.93695169	         -0.01944913	        -12.40720830	         -2.01581209	          7.31099255	         70.75874020	         -5.67420667	         -6.07770562	        140.10834618	         76.06732752	        -14.48816127	          7.65040551	        -54.30030602	          0.25022802	         -1.16175689	         98.03664369	         61.03125570	         -5.84931076	          7.73955732	
          0.11548451	         -8.59362141	          5.39399252	        -15.16400243	          0.71001246	          0.95899307	          0.30438965	          5.50894696	         -9.50916434	          7.75506295	        -33.37867222	          6.16463776	        -12.45319518	          7.84272932	         70.19530968	         -9.34575777	          3.68404559	       -126.90924354	          9.00259314	        -18.71660510	         -0.10417855	        -12.19661129	         -2.37213606	          7.38105239	         72.50431497	         -4.97621025	         -5.33807509	        139.89013813	         75.86201583	        -14.17784590	          7.76437373	        -56.24621687	          0.50156369	         -1.24996894	         99.18910914	         60.52766683	         -6.14442210	          7.72689912	
          0.11692665	         -8.59936942	          5.58151977	        -15.07726398	          0.72716263	          0.95883326	          0.30422705	          5.23123568	         -9.94946566	          7.57794125	        -34.34726547	          4.80296044	        -12.57946368	          6.66039176	         71.02906869	         -9.16307507	          3.71511446	       -126.34087235	          9.06840454	        -18.56839279	         -0.16112402	        -12.07270374	         -2.60734689	          7.46627389	         73.71166427	         -4.49059762	         -4.84875311	        139.62580810	         75.72271040	        -13.95300073	          7.83842569	        -57.61094022	          0.64823769	         -1.28451194	         99.95334917	         60.19074564	         -6.36883867	          7.71876322	
          0.11692665	         -8.59936942	          5.58151977	        -15.07726398	          0.72716263	          0.95883326	          0.30422705	          5.23123568	         -9.94946566	          7.57794125	        -34.34726547	          4.80296044	        -12.57946368	          6.66039176	         71.02906869	         -9.16307507	          3.71511446	       -126.34087235	          9.06840454	        -18.56839279	         -0.16112402	        -12.07270374	         -2.60734689	          7.46627389	         73.71166427	         -4.49059762	         -4.84875311	        139.62580810	         75.72271040	        -13.95300073	          7.83842569	        -57.61094022	          0.64823769	         -1.28451194	         99.95334917	         60.19074564	         -6.36883867	          7.71876322	
          0.11755643	         -8.59790371	          5.65432756	        -15.04569997	          0.73464173	          0.95877895	          0.30417064	          5.11175166	        -10.13001004	          7.51194475	        -34.77252462	          4.17183884	        -12.64647357	          6.14406415	         71.38018023	         -9.09814166	          3.72957612	       -126.08062809	          9.09149108	        -18.50753046	         -0.18496612	        -12.02687029	         -2.70389956	          7.51225381	         74.22405070	         -4.28503352	         -4.64435318	        139.48209681	         75.66390976	        -13.85478954	          7.86887903	        -58.19386153	          0.70322163	         -1.29054023	        100.26623363	         60.05090212	         -6.46931973	          7.71521256	
